<svg width="48" height="15" viewBox="0 0 48 15" fill="none" xmlns="http://www.w3.org/2000/svg">
<path d="M37.4 14.1V4.54H32V0H48V4.54H42.6V14.1H37.4Z" fill="white"/>
<path d="M24.74 14.24C22.72 14.24 21.38 14.18 20 14.06V9.76C20.88 9.82 21.56 9.86 22.5 9.84C23.6 9.84 24.08 9.42 24.1 8.36V0H29.3V9.74C29.3 12.58 27.62 14.24 24.74 14.24Z" fill="white"/>
<path d="M8.56 14.44C2.7 14.44 0 12.38 0 8.18V0H5.2V7.62C5.2 9.2 6.08 10.16 8.56 10.14C11.02 10.14 11.92 9.2 11.92 7.62V0H17.12V8.18C17.12 12.38 14.42 14.44 8.56 14.44Z" fill="white"/>
</svg>
