<?xml version="1.0" encoding="UTF-8"?>
<svg id="Layer_1" xmlns="http://www.w3.org/2000/svg" version="1.1" viewBox="0 0 873.4 371.9">
  <!-- Generator: Adobe Illustrator 29.7.1, SVG Export Plug-In . SVG Version: 2.1.1 Build 8)  -->
  <defs>
    <style>
      .st0 {
        fill: #6e59f6;
      }
    </style>
  </defs>
  <path class="st0" d="M174.2,288c-35.2,7.6-66.7,4.9-91.2-7.6-25.7-13.2-42.7-36.2-49.2-66.5L9.9,102.5l105.4-22.7,22.7,105.2c1.1,5.1,2.9,8.9,5,10.2,2,1.4,6.2,1.5,11.5.4,10-2.1,12.6-6.3,10.4-16.4l-22.7-105.2,105.4-22.7,24.1,112.1c6.5,30.3.5,58.1-17.5,80.5-17.3,21.6-44.2,36.4-79.9,44.1Z"/>
  <path class="st0" d="M303.8,354c-8.2,0-23.9-.4-36.8-3.3l-19.6-4.4v-91.4l25,2.6c4.2.3,4.2.4,7.3,0s3-.3,7.1-3.3c5.9-4.8,5.6-10.5,5.6-11.2l.6-102.2h107.6v127.8c0,37.5-17.5,57.7-32.1,68-16.3,11.5-38,17.3-64.7,17.3Z"/>
  <polygon class="st0" points="665.3 253 679.8 137.6 618.6 130 630.3 36.7 859.6 65.4 847.9 158.7 786.5 151 772.1 266.4 665.3 253"/>
  <g>
    <path class="st0" d="M483.6,286.3c-10.8,0-20.7-1.6-29.6-4.7-9.2-3.2-17.2-7.9-23.7-13.9-6.6-6-11.8-13.3-15.4-21.5-3.6-8.2-5.4-17.2-5.4-26.7,0-14.1,4.6-27.1,13.6-38.7,6-7.7,14.2-14.8,25-21.5-2.4-4.1-4.3-8.1-5.9-12-3.7-9-5.5-18.3-5.5-27.7s1.9-17.6,5.7-25.6c3.7-7.8,9-14.7,15.7-20.6,6.6-5.8,14.7-10.4,24-13.6,9-3.1,19.1-4.7,29.8-4.7s19.3,1.6,27.6,4.7c8.4,3.2,15.8,7.6,22,13.1,6.3,5.7,11.2,12.5,14.5,20.3,3.3,7.7,5,16,5,24.8,0,14.9-5,28.3-15,39.9-5.7,6.6-12.8,12.9-21.6,19.1.1.1.2.2.3.4,1.1,1.1,2.1,2.2,3.2,3.4,1.1-1.3,2.2-2.6,3.3-3.9,4.8-5.7,10.1-12.1,15.7-19.1l4.5-5.6h62.6v21l-3.3,4.1c-9.2,11.5-17.9,22.1-25.8,31.4-4.3,5-8.5,9.8-12.5,14.4,3.9,3.5,7.9,7,12,10.7,8.2,7.2,17.4,15.2,27.5,23.6l5.3,4.5v22.4h-70l-4.2-3.5c-4.8-4-9.3-8-13.6-11.9-1-.9-2-1.8-3-2.7-8.3,5.7-16.5,10.3-24.7,13.5-11.8,4.7-24.6,7.1-38.1,7.1ZM486.2,207c-2.9,2.3-4.5,3.9-5.3,4.9-1.5,1.9-2.3,3.6-2.3,5,0,2.5.7,4.2,2.4,6,1.3,1.4,3.9,2.1,7.6,2.1s7.5-.8,11.6-2.5c.2,0,.4-.2.5-.2-5.1-5.2-10-10.3-14.6-15.3ZM510.4,114.2c-3.6,0-4.5,1-4.9,1.4-1.3,1.4-1.8,2.9-1.8,5.1s.7,5.2,2,7.8c.5,1,1.1,2.1,1.8,3.2,1.7-1.5,3.1-2.9,4.3-4.3,2.7-3.2,3-5.5,3-7.2,0-3.6-1-4.7-1.4-5.1-.3-.3-.8-.9-3-.9Z"/>
    <path class="st0" d="M554.5,147.9c-7.6,8.8-18.7,17.4-33.4,25.6,3.9,4.5,8.1,9.1,12.6,13.8s9.4,9.7,14.7,14.9c4.5-4.8,9.2-10.1,14.1-15.9s10.2-12.3,15.9-19.4h40.5v.8c-9.1,11.4-17.6,21.8-25.5,31-7.9,9.2-15.3,17.6-22.2,25.1,7.1,6.6,14.9,13.6,23.2,20.9s17.6,15.3,27.7,23.9v.5h-49.6c-4.6-3.9-9-7.8-13.1-11.5s-8.2-7.4-12.3-11c-10.5,8.6-20.9,14.9-31,18.9-10.1,4-21,6-32.6,6s-17.3-1.3-24.7-3.9c-7.3-2.6-13.5-6.2-18.6-10.9s-9-10.1-11.8-16.5-4.2-13.3-4.2-20.8c0-10.7,3.5-20.6,10.5-29.6s18.5-17.5,34.6-25.3c-6.1-8-10.6-15.7-13.5-22.9s-4.4-14.6-4.4-22.1,1.4-13.2,4.3-19.2,6.9-11.3,12.1-15.8,11.5-8.1,19-10.7,15.8-3.9,24.9-3.9,15.7,1.3,22.4,3.8,12.4,5.9,17.2,10.2,8.4,9.3,10.9,15.1,3.8,12.1,3.8,18.9c0,11.3-3.8,21.3-11.4,30.2ZM506,236.3c5.8-2.4,12-6.2,18.6-11.4-13.8-13.4-25.7-25.9-35.9-37.5-9.3,5.5-15.8,10.6-19.4,15.3s-5.5,9.4-5.5,14.2,2.1,11.7,6.4,16.2,10.5,6.8,18.5,6.8,11.5-1.2,17.3-3.6ZM492.3,135.3c2.4,4.7,6.2,10.5,11.4,17.3,8.6-5.2,15.1-10.4,19.4-15.5s6.6-10.8,6.6-16.9-1.7-11.3-5.2-15.1-8.2-5.8-14.1-5.8-12.1,2.1-15.9,6.3-5.8,9.2-5.8,15.1,1.2,9.9,3.6,14.6Z"/>
  </g>
</svg>