<?xml version="1.0" encoding="UTF-8"?>
<svg id="Layer_1" xmlns="http://www.w3.org/2000/svg" version="1.1" viewBox="0 0 392.11 108.81">
  <!-- Generator: Adobe Illustrator 29.7.1, SVG Export Plug-In . SVG Version: 2.1.1 Build 8)  -->
  <path d="M58.88,104.67c-16.26-.12-29.87-4.42-39.43-12.35-10.02-8.35-15.24-20.16-15.11-34.15l.46-51.43,48.68.4-.38,48.59c-.02,2.35.4,4.21,1.2,4.98.75.82,2.58,1.27,5.03,1.31,4.61.06,6.17-1.53,6.2-6.19l.38-48.59,48.68.4-.45,51.77c-.12,13.99-5.51,25.64-15.65,33.74-9.75,7.81-23.06,11.67-39.55,11.54h-.04s-.01-.02-.01-.02Z"/>
  <path d="M140.05,103.84c-3.7,0-10.79-.18-16.61-1.49l-8.85-1.99v-41.26l11.29,1.18c1.9.14,1.9.18,3.29,0s1.35-.14,3.21-1.49c2.67-2.17,2.53-4.74,2.53-5.06l.27-46.14h48.58v57.7c0,16.93-7.9,26.05-14.49,30.7-7.36,5.19-17.15,7.81-29.21,7.81v.04h0Z"/>
  <polygon points="315.8 101.95 315.63 49.44 287.78 49.57 287.64 7.11 391.97 6.73 392.11 49.19 364.18 49.28 364.39 101.79 315.8 101.95"/>
  <g>
    <path d="M218.28,105.03c-4.87,0-9.34-.72-13.36-2.12-4.16-1.45-7.77-3.57-10.7-6.28-2.98-2.71-5.33-6.01-6.96-9.71s-2.44-7.77-2.44-12.05c0-6.36,2.07-12.24,6.14-17.48,2.71-3.48,6.41-6.68,11.29-9.71-1.08-1.85-1.94-3.66-2.67-5.42-1.67-4.06-2.48-8.26-2.48-12.51s.85-7.95,2.57-11.56c1.67-3.52,4.06-6.63,7.09-9.3,2.98-2.62,6.63-4.7,10.83-6.14,4.06-1.4,8.62-2.12,13.46-2.12s8.72.72,12.46,2.12c3.79,1.45,7.13,3.43,9.94,5.92,2.84,2.57,5.06,5.64,6.55,9.17,1.49,3.48,2.26,7.23,2.26,11.2,0,6.73-2.26,12.78-6.77,18.02-2.57,2.98-5.78,5.82-9.75,8.62.04.04.09.09.14.18.5.5.95.99,1.45,1.53.5-.58.99-1.18,1.49-1.76,2.17-2.57,4.56-5.46,7.09-8.62l2.03-2.53h28.27v9.48l-1.49,1.85c-4.16,5.19-8.08,9.98-11.65,14.17-1.94,2.26-3.84,4.43-5.64,6.5,1.76,1.58,3.57,3.16,5.42,4.83,3.7,3.25,7.85,6.86,12.41,10.65l2.4,2.03v10.11h-31.6l-1.9-1.58c-2.17-1.8-4.2-3.61-6.14-5.37-.45-.41-.91-.81-1.35-1.22-3.75,2.57-7.45,4.65-11.15,6.09-5.33,2.12-11.1,3.21-17.2,3.21v-.23h0ZM219.46,69.23c-1.31,1.04-2.03,1.76-2.4,2.21-.68.85-1.04,1.62-1.04,2.26,0,1.13.31,1.9,1.08,2.71.58.64,1.76.95,3.43.95s3.38-.36,5.24-1.13c.09,0,.18-.09.23-.09-2.3-2.35-4.51-4.65-6.59-6.91h.04,0ZM230.38,27.33c-1.62,0-2.03.45-2.21.64-.58.64-.81,1.31-.81,2.3s.31,2.35.91,3.52c.23.45.5.95.81,1.45.77-.68,1.4-1.31,1.94-1.94,1.22-1.45,1.35-2.48,1.35-3.25,0-1.62-.45-2.12-.64-2.3-.14-.14-.36-.41-1.35-.41h0Z"/>
    <path d="M250.29,42.54c-3.43,3.97-8.45,7.85-15.08,11.56,1.76,2.03,3.66,4.11,5.69,6.23s4.24,4.38,6.63,6.73c2.03-2.17,4.16-4.56,6.36-7.18s4.6-5.55,7.18-8.76h18.29v.36c-4.11,5.15-7.95,9.84-11.51,14s-6.91,7.95-10.02,11.33c3.21,2.98,6.73,6.14,10.48,9.44s7.95,6.91,12.51,10.79v.23h-22.39c-2.07-1.76-4.06-3.52-5.92-5.19s-3.7-3.34-5.55-4.97c-4.74,3.88-9.44,6.73-14,8.53s-9.48,2.71-14.72,2.71-7.81-.58-11.15-1.76c-3.29-1.18-6.09-2.8-8.39-4.92s-4.06-4.56-5.33-7.45-1.9-6.01-1.9-9.39c0-4.83,1.58-9.3,4.74-13.36s8.35-7.9,15.62-11.42c-2.75-3.61-4.79-7.09-6.09-10.34s-1.99-6.59-1.99-9.98.64-5.96,1.94-8.67,3.11-5.1,5.46-7.13,5.19-3.66,8.58-4.83,7.13-1.76,11.24-1.76,7.09.58,10.11,1.72,5.6,2.67,7.77,4.6,3.79,4.2,4.92,6.82,1.72,5.46,1.72,8.53c0,5.1-1.72,9.61-5.15,13.63l-.04-.09h0ZM228.39,82.45c2.62-1.08,5.42-2.8,8.39-5.15-6.23-6.05-11.6-11.7-16.21-16.93-4.2,2.48-7.13,4.79-8.76,6.91s-2.48,4.24-2.48,6.41.95,5.28,2.89,7.31,4.74,3.07,8.35,3.07,5.19-.54,7.81-1.62h0ZM222.21,36.86c1.08,2.12,2.8,4.74,5.15,7.81,3.88-2.35,6.82-4.7,8.76-7s2.98-4.87,2.98-7.63-.77-5.1-2.35-6.82-3.7-2.62-6.36-2.62-5.46.95-7.18,2.84-2.62,4.16-2.62,6.82.54,4.47,1.62,6.59h0Z"/>
  </g>
</svg>