<?xml version="1.0" encoding="UTF-8"?>
<svg id="Layer_1" xmlns="http://www.w3.org/2000/svg" version="1.1" viewBox="0 0 392.11 108.81">
  <!-- Generator: Adobe Illustrator 29.8.2, SVG Export Plug-In . SVG Version: 2.1.1 Build 3)  -->
  <path d="M57.17,62.02c5.19,0,6.07-1.61,6.2-5.96l.32-41.19v-.06c.03-4.18,3.45-7.55,7.63-7.51h0s32.03.26,32.03.26h.81c4.57.04,8.24,3.78,8.2,8.34h0s-.38,43.5-.38,43.5c-.12,13.99-5.51,25.64-15.65,33.74-9.75,7.81-23.06,11.67-39.55,11.54h-.04v-.02s-.02,0-.02,0c-16.26-.12-29.87-4.42-39.43-12.35-10.02-8.35-15.24-20.16-15.11-34.15l.43-43.25v-.68c.02-3.56,3.59-7.49,7.15-7.48h1s33.59.31,33.59.31h0c3.85.03,6.95,3.18,6.92,7.03v.36s-.33,41.26-.33,41.26c0,0-.18,6.29,6.23,6.29Z"/>
  <path d="M137.89,103.84c-3.7,0-10.79-.18-16.61-1.49l-.27-.06c-5.02-1.13-8.58-5.58-8.58-10.73h0v-26.41c0-3.24,2.8-5.76,6.02-5.43h0s5.27.55,5.27.55c1.9.14,1.9.18,3.29,0,1.39-.18,1.35-.14,3.21-1.49,2.67-2.17,2.53-4.74,2.53-5.06l.21-36.57h0c.03-5.29,4.33-9.57,9.62-9.57h.03s26.41,0,26.41,0h1.46c6.14,0,11.12,4.98,11.12,11.12h0v46.58c0,16.93-7.9,26.05-14.49,30.7-7.36,5.19-17.15,7.81-29.21,7.81v.04h0Z"/>
  <path d="M319.92,101.93c-3.46.01-6.28-2.79-6.29-6.25v-.18s-.15-46.06-.15-46.06l-19.16.09h-.52c-4.51.02-8.18-3.62-8.19-8.13h0s-.08-25.36-.08-25.36c-.02-4.94,3.97-8.95,8.91-8.97h0s85.57-.31,85.57-.31h1.42c4.64-.02,8.41,3.73,8.43,8.37h0s.09,27.27.09,27.27h0c.01,3.75-3.02,6.8-6.77,6.81h-.73s-20.41.07-20.41.07l.19,46.33h0c.01,3.41-2.74,6.19-6.16,6.2h-1.11s-35.03.12-35.03.12h0Z"/>
  <path d="M254.56,47.71l.25-.27c1.71-1.88,4.13-2.95,6.67-2.95h17.39c2.86,0,5.18,2.32,5.18,5.18h0v1.92c0,1.54-.53,3.03-1.49,4.23h0c-4.16,5.19-8.08,9.98-11.65,14.17-1.94,2.26-3.84,4.43-5.64,6.5,1.76,1.58,3.57,3.16,5.42,4.83,3.7,3.25,7.85,6.86,12.41,10.65h0c1.52,1.29,2.4,3.18,2.4,5.17v1.33s0,0,0,0c0,3.11-2.52,5.64-5.64,5.64h-2.32s-21.17,0-21.17,0c-1.6,0-3.14-.56-4.37-1.58h0c-2.17-1.8-4.2-3.61-6.14-5.37-.45-.41-.91-.81-1.35-1.22-3.75,2.57-7.45,4.65-11.15,6.09-5.33,2.12-11.1,3.21-17.2,3.21v-.23h0l-.04.03c-4.87,0-9.34-.72-13.36-2.12-4.16-1.45-7.77-3.57-10.7-6.28-2.98-2.71-5.33-6.01-6.96-9.71s-2.44-7.77-2.44-12.05c0-6.36,2.07-12.24,6.14-17.48,2.71-3.48,6.41-6.68,11.29-9.71-1.08-1.85-1.94-3.66-2.67-5.42-1.67-4.06-2.48-8.26-2.48-12.51s.85-7.95,2.57-11.56c1.67-3.52,4.06-6.63,7.09-9.3,2.98-2.62,6.63-4.7,10.83-6.14,4.06-1.4,8.62-2.12,13.46-2.12s8.72.72,12.46,2.12c3.79,1.45,7.13,3.43,9.94,5.92,2.84,2.57,5.06,5.64,6.55,9.17,1.49,3.48,2.26,7.23,2.26,11.2,0,6.73-2.41,12.69-6.92,17.93-2.57,2.98-5.63,5.91-9.6,8.71l1.59,1.71,9.38-9.68ZM223.03,75.03c-.78-1.14-1.69-2.2-2.6-3.12-3.96-3.97-5.89-.36-5.89-.36-.57.9-.68,1.51-.68,2.15,0,1.13.31,1.9,1.08,2.71.58.64,1.76.95,3.43.95,1.45,0,2.93-.27,4.5-.84,0,0,.88-.42.15-1.48ZM228.93,33.49c1.22-1.45,1.29-2.67,1.29-3.44,0-1.62-.45-2.12-.64-2.3-.14-.14-.36-.41-1.35-.41h0c-1.62-.01-2.03.44-2.21.63-.58.64-.81,1.31-.81,2.3s.31,2.35.91,3.52c0,0,.96,2.26,2.81-.3Z"/>
</svg>