<svg width="458" height="39" viewBox="0 0 458 39" fill="none" xmlns="http://www.w3.org/2000/svg">
<path d="M445.196 38V33.38L438.456 23.9H444.696L446.596 26.92L447.836 28.84L449.056 26.92L450.976 23.9H457.216L450.456 33.38V38H445.196Z" fill="white"/>
<path d="M428.995 38.34C422.795 38.34 419.815 35.82 419.815 30.94C419.815 26 423.055 23.56 429.615 23.54C435.655 23.54 438.655 25.44 439.055 28.84H433.515C433.155 27.94 431.935 27.46 429.695 27.44C426.675 27.44 425.235 28.44 425.255 31.02C425.255 33.54 426.575 34.64 429.695 34.64C431.955 34.64 433.235 34.22 433.855 33.24H428.755V29.92H438.995V38H434.295V36.82C433.315 37.84 431.655 38.34 428.995 38.34Z" fill="white"/>
<path d="M408.993 38.34C402.473 38.34 399.053 35.7 399.053 30.96C399.053 26.2 402.473 23.54 408.993 23.54C415.513 23.54 418.933 26.22 418.933 30.96C418.933 35.68 415.493 38.34 408.993 38.34ZM408.993 34.18C412.033 34.18 413.493 33.04 413.493 30.94C413.493 28.84 412.033 27.72 408.993 27.72C405.953 27.72 404.493 28.84 404.513 30.96C404.513 33.06 405.953 34.18 408.993 34.18Z" fill="white"/>
<path d="M386.038 38V23.9H391.238V33.64H398.518V38H386.038Z" fill="white"/>
<path d="M374.696 38.34C368.176 38.34 364.756 35.7 364.756 30.96C364.756 26.2 368.176 23.54 374.696 23.54C381.216 23.54 384.636 26.22 384.636 30.96C384.636 35.68 381.196 38.34 374.696 38.34ZM374.696 34.18C377.736 34.18 379.196 33.04 379.196 30.94C379.196 28.84 377.736 27.72 374.696 27.72C371.656 27.72 370.196 28.84 370.216 30.96C370.216 33.06 371.656 34.18 374.696 34.18Z" fill="white"/>
<path d="M345.472 38V23.9H351.292L355.932 29.26C356.732 30.18 357.512 31.12 358.312 32.12V29.1V23.9H363.352V38H357.532L352.912 32.66C352.092 31.72 351.312 30.8 350.512 29.78V32.8V38H345.472Z" fill="white"/>
<path d="M325.843 38V23.9H331.043V28.52H338.343V23.9H343.543V38H338.343V32.82H331.043V38H325.843Z" fill="white"/>
<path d="M314.868 38.34C308.668 38.34 305.108 35.9 305.108 30.94C305.108 25.98 308.668 23.54 314.868 23.54C321.088 23.54 324.248 26.06 324.428 29.84H318.948C318.668 28.48 317.348 27.72 314.848 27.72C312.108 27.72 310.548 28.6 310.568 30.94C310.568 33.28 312.108 34.18 314.848 34.18C317.348 34.18 318.668 33.42 318.948 32.04H324.428C324.268 35.82 321.088 38.34 314.868 38.34Z" fill="white"/>
<path d="M289.788 38V23.9H304.008V27.58H294.988V29.04H303.788V32.64H294.988V34.3H304.008V38H289.788Z" fill="white"/>
<path d="M277.831 38V28.44H272.431V23.9H288.431V28.44H283.031V38H277.831Z" fill="white"/>
<path d="M249.573 38V23.9H260.213C265.013 23.9 267.573 26.62 267.593 30.94C267.593 35.26 265.013 38 260.213 38H249.573ZM259.153 33.9C260.993 33.9 262.173 32.9 262.193 30.94C262.193 29.02 260.993 28 259.153 28H254.773V33.9H259.153Z" fill="white"/>
<path d="M229.769 38V23.9H235.589L240.229 29.26C241.029 30.18 241.809 31.12 242.609 32.12V29.1V23.9H247.649V38H241.829L237.209 32.66C236.389 31.72 235.609 30.8 234.809 29.78V32.8V38H229.769Z" fill="white"/>
<path d="M208.711 38L215.471 23.9H222.071L228.811 38H223.051L222.091 35.74H215.431L214.471 38H208.711ZM218.771 27.86C218.311 29.02 217.851 30.1 217.311 31.34L217.031 31.98H220.491L220.211 31.34C219.691 30.14 219.231 29.04 218.771 27.86Z" fill="white"/>
<path d="M189.69 38V23.9H203.91V27.58H194.89V29.04H203.69V32.64H194.89V34.3H203.91V38H189.69Z" fill="white"/>
<path d="M178.716 38.34C172.516 38.34 168.956 35.9 168.956 30.94C168.956 25.98 172.516 23.54 178.716 23.54C184.936 23.54 188.096 26.06 188.276 29.84H182.796C182.516 28.48 181.196 27.72 178.696 27.72C175.956 27.72 174.396 28.6 174.416 30.94C174.416 33.28 175.956 34.18 178.696 34.18C181.196 34.18 182.516 33.42 182.796 32.04H188.276C188.116 35.82 184.936 38.34 178.716 38.34Z" fill="white"/>
<path d="M162.366 38V23.9H167.566V38H162.366Z" fill="white"/>
<path d="M150.409 38V28.44H145.009V23.9H161.009V28.44H155.609V38H150.409Z" fill="white"/>
<path d="M135.948 38.34C130.248 38.34 127.588 36.74 127.528 33.44H133.028C133.108 34.48 133.968 34.98 136.028 34.98C137.988 34.98 138.728 34.62 138.748 33.86C138.748 33.32 138.428 33.04 137.668 32.92L132.788 32.52C129.248 32.18 127.788 30.84 127.788 28.34C127.788 25.14 130.348 23.56 135.828 23.54C141.408 23.54 143.968 25.12 144.148 28.34H138.648C138.588 27.38 137.828 26.92 135.788 26.9C133.908 26.9 133.188 27.24 133.208 27.9C133.208 28.4 133.528 28.66 134.408 28.78L139.308 29.22C142.728 29.58 144.128 30.82 144.148 33.4C144.148 36.74 141.488 38.34 135.948 38.34Z" fill="white"/>
<path d="M117.777 38.34C111.917 38.34 109.217 36.28 109.217 32.08V23.9H114.417V31.52C114.417 33.1 115.297 34.06 117.777 34.04C120.237 34.04 121.137 33.1 121.137 31.52V23.9H126.337V32.08C126.337 36.28 123.637 38.34 117.777 38.34Z" fill="white"/>
<path d="M103.087 38.14C101.067 38.14 99.7269 38.08 98.3469 37.96V33.66C99.2269 33.72 99.9069 33.76 100.847 33.74C101.947 33.74 102.427 33.32 102.447 32.26V23.9H107.647V33.64C107.647 36.48 105.967 38.14 103.087 38.14Z" fill="white"/>
<path d="M75.1983 38V23.9H81.0183L85.6583 29.26C86.4583 30.18 87.2383 31.12 88.0383 32.12V29.1V23.9H93.0783V38H87.2583L82.6383 32.66C81.8183 31.72 81.0383 30.8 80.2383 29.78V32.8V38H75.1983Z" fill="white"/>
<path d="M54.1406 38L60.9006 23.9H67.5006L74.2406 38H68.4806L67.5206 35.74H60.8606L59.9006 38H54.1406ZM64.2006 27.86C63.7406 29.02 63.2806 30.1 62.7406 31.34L62.4606 31.98H65.9206L65.6406 31.34C65.1206 30.14 64.6606 29.04 64.2006 27.86Z" fill="white"/>
<path d="M37.503 38V23.9H49.203C52.143 23.9 53.723 25.16 53.723 27.54C53.723 29.04 52.943 30.1 51.543 30.46C53.163 30.84 54.103 32.12 54.103 33.98C54.103 36.6 52.403 38 49.223 38H37.503ZM47.423 34.68C48.263 34.68 48.703 34.26 48.703 33.48C48.703 32.72 48.263 32.3 47.423 32.28H42.703V34.68H47.423ZM47.123 29.36C47.903 29.36 48.323 28.98 48.323 28.28C48.323 27.6 47.903 27.22 47.123 27.2H42.703V29.36H47.123Z" fill="white"/>
<path d="M19.5733 38V23.9H30.6933C34.0933 23.9 35.8133 25.38 35.8333 28.08C35.8333 29.96 34.9133 31.14 33.5333 31.66C34.7733 32.04 35.4733 32.88 35.6733 34.58L35.9333 36.86L36.1533 38H30.8533L30.6333 36.86L30.4133 35.16C30.3133 34.3 29.8333 33.92 28.9933 33.92H24.7733V38H19.5733ZM28.9533 30.22C29.8533 30.22 30.4133 29.76 30.4333 28.9C30.4333 28.06 29.8733 27.6 28.9533 27.6H24.7733V30.22H28.9533Z" fill="white"/>
<path d="M9.31999 38.34C3.45999 38.34 0.759995 36.28 0.759995 32.08V23.9H5.95999V31.52C5.95999 33.1 6.83999 34.06 9.31999 34.04C11.78 34.04 12.68 33.1 12.68 31.52V23.9H17.88V32.08C17.88 36.28 15.18 38.34 9.31999 38.34Z" fill="white"/>
<path d="M92.8741 15V0.900002H103.994C107.394 0.900002 109.114 2.38 109.134 5.08C109.134 6.96 108.214 8.14 106.834 8.66C108.074 9.04 108.774 9.88 108.974 11.58L109.234 13.86L109.454 15H104.154L103.934 13.86L103.714 12.16C103.614 11.3 103.134 10.92 102.294 10.92H98.0741V15H92.8741ZM102.254 7.22C103.154 7.22 103.714 6.76 103.734 5.9C103.734 5.06 103.174 4.6 102.254 4.6H98.0741V7.22H102.254Z" fill="white"/>
<path d="M81.5323 15.34C75.0123 15.34 71.5923 12.7 71.5923 7.96C71.5923 3.2 75.0123 0.540001 81.5323 0.540001C88.0523 0.540001 91.4723 3.22 91.4723 7.96C91.4723 12.68 88.0323 15.34 81.5323 15.34ZM81.5323 11.18C84.5723 11.18 86.0323 10.04 86.0323 7.94C86.0323 5.84 84.5723 4.72 81.5323 4.72C78.4923 4.72 77.0323 5.84 77.0523 7.96C77.0523 10.06 78.4923 11.18 81.5323 11.18Z" fill="white"/>
<path d="M56.8584 15V0.900002H70.6984V5H62.0584V6.76H70.4584V10.86H62.0584V15H56.8584Z" fill="white"/>
<path d="M34.8858 15V0.900002H46.5858C49.5258 0.900002 51.1058 2.16 51.1058 4.54C51.1058 6.04 50.3258 7.1 48.9258 7.46C50.5458 7.84 51.4858 9.12 51.4858 10.98C51.4858 13.6 49.7858 15 46.6058 15H34.8858ZM44.8058 11.68C45.6458 11.68 46.0858 11.26 46.0858 10.48C46.0858 9.72 45.6458 9.3 44.8058 9.28H40.0858V11.68H44.8058ZM44.5058 6.36C45.2858 6.36 45.7058 5.98 45.7058 5.28C45.7058 4.6 45.2858 4.22 44.5058 4.2H40.0858V6.36H44.5058Z" fill="white"/>
<path d="M13.8281 15L20.5881 0.900002H27.1881L33.9281 15H28.1681L27.2081 12.74H20.5481L19.5881 15H13.8281ZM23.8881 4.86C23.4281 6.02 22.9681 7.1 22.4281 8.34L22.1481 8.98H25.6081L25.3281 8.34C24.8081 7.14 24.3481 6.04 23.8881 4.86Z" fill="white"/>
<path d="M0.959991 15V0.900002H6.15999V10.64H13.44V15H0.959991Z" fill="white"/>
</svg>
